# xmcd
#
# Track frame offsets: 
#        150
#        16835
#        30393
#        44273
#        61651
#        81926
#        103942
#        124477
#        140289
#        162202
#        174043
#        189908
#
# Disc length: 2828 seconds
#
# Revision: 0
# Processed by: cddbd v1.5.2PL0 Copyright (c) Steve Scherf et al.
# Submitted via: ExactAudioCopy v0.99pb4
#
DISCID=8d0b0a0c
DTITLE=David Rotundo Band - No Looking Back
DYEAR=2009
DGENRE=Blues
TTITLE0=Don't Lie To Me
TTITLE1=Good Thing
TTITLE2=Shake It Down
TTITLE3=I Don't Need No Body
TTITLE4=Miss Mistreating Mama
TTITLE5=Too Much Woman
TTITLE6=That Girl
TTITLE7=Thinking and Drinking
TTITLE8=Stop Doing Wrong
TTITLE9=How Much More Do You Want?
TTITLE10=Too Blue
TTITLE11=Real Love
EXTD=
EXTT0=
EXTT1=
EXTT2=
EXTT3=
EXTT4=
EXTT5=
EXTT6=
EXTT7=
EXTT8=
EXTT9=
EXTT10=
EXTT11=
PLAYORDER=
